<svg width="61" height="61" viewBox="0 0 61 61" fill="none" xmlns="http://www.w3.org/2000/svg">
<g clip-path="url(#clip0_6430_26529)">
<path d="M18.406 32.5859C18.0705 32.5859 17.735 32.458 17.4791 32.202L5.38486 20.1079C4.87301 19.5959 4.87301 18.7659 5.38486 18.2539C5.89683 17.7419 6.72688 17.7419 7.23885 18.2539L19.3329 30.348C19.8448 30.86 19.8448 31.69 19.3329 32.202C19.0769 32.458 18.7415 32.5859 18.406 32.5859Z" fill="#33CCCC"/>
<path d="M12.3588 38.633C12.0233 38.633 11.6878 38.505 11.4319 38.2491L0.956153 27.7735C0.444303 27.2615 0.444303 26.4315 0.956153 25.9195C1.46812 25.4075 2.29817 25.4075 2.81013 25.9195L13.2857 36.3951C13.7976 36.9071 13.7976 37.7371 13.2857 38.2491C13.0297 38.505 12.6943 38.633 12.3588 38.633Z" fill="#33CCCC"/>
<path d="M24.4644 26.5278C24.1289 26.5278 23.7935 26.3998 23.5375 26.1438L13.0685 15.6748C12.5566 15.1628 12.5566 14.3328 13.0685 13.8208C13.5804 13.3088 14.4105 13.3088 14.9224 13.8208L25.3915 24.2898C25.9033 24.8018 25.9033 25.6318 25.3915 26.1438C25.1354 26.3998 24.7998 26.5278 24.4644 26.5278Z" fill="#33CCCC"/>
<path d="M42.9612 32.2184C42.6257 32.2184 42.2903 32.0904 42.0343 31.8344C41.5224 31.3225 41.5224 30.4924 42.0343 29.9805L53.7608 18.2539C54.2728 17.7419 55.1028 17.7419 55.6148 18.2539C56.1267 18.7659 56.1267 19.5959 55.6148 20.1079L43.8883 31.8344C43.6323 32.0904 43.2967 32.2184 42.9612 32.2184Z" fill="#33CCCC"/>
<path d="M48.6409 38.633C48.3054 38.633 47.97 38.505 47.714 38.2491C47.2021 37.7371 47.2021 36.9071 47.714 36.3951L58.1896 25.9195C58.7015 25.4075 59.5316 25.4075 60.0435 25.9195C60.5554 26.4315 60.5554 27.2615 60.0435 27.7735L49.5679 38.2491C49.312 38.505 48.9764 38.633 48.6409 38.633Z" fill="#33CCCC"/>
<path d="M36.5354 26.5278C36.2 26.5278 35.8645 26.3998 35.6085 26.1438C35.0966 25.6319 35.0966 24.8018 35.6085 24.2899L46.0775 13.8208C46.5894 13.309 47.4193 13.3089 47.9315 13.8208C48.4434 14.3328 48.4434 15.1628 47.9315 15.6748L37.4625 26.1438C37.2065 26.3998 36.8709 26.5278 36.5354 26.5278Z" fill="#33CCCC"/>
<path d="M18.9077 54.3143C18.3397 54.3143 17.8165 53.9423 17.6497 53.3697C17.0873 51.439 17.9632 49.3439 19.7325 48.388C20.4222 48.0154 20.7636 47.1988 20.5444 46.4462C19.982 44.5155 20.8581 42.4204 22.6272 41.4645C23.3169 41.0919 23.6584 40.2753 23.4392 39.5227C22.8768 37.592 23.7527 35.4969 25.5219 34.541C26.2116 34.1685 26.553 33.3518 26.3339 32.5992C25.7715 30.6686 26.6474 28.5734 28.4167 27.6175C29.0534 27.2733 29.849 27.5106 30.1932 28.1477C30.5374 28.7847 30.3 29.5801 29.663 29.9242C28.9733 30.2969 28.6319 31.1135 28.8511 31.8661C29.4134 33.7968 28.5375 35.8918 26.7683 36.8477C26.0786 37.2204 25.7372 38.037 25.9563 38.7896C26.5187 40.7203 25.6427 42.8154 23.8734 43.7714C23.1838 44.1439 22.8423 44.9606 23.0615 45.7133C23.6239 47.6439 22.7479 49.739 20.9787 50.695C20.289 51.0675 19.9476 51.8842 20.1668 52.6367C20.3692 53.3318 19.9699 54.0594 19.2749 54.262C19.1525 54.2974 19.0291 54.3143 18.9077 54.3143Z" fill="#33CCCC"/>
<path d="M47.863 68.8983C47.638 68.8983 47.41 68.8403 47.2018 68.7184C45.4665 67.7022 44.6633 65.5783 45.2917 63.6681C45.5367 62.9235 45.2235 62.0956 44.5471 61.6994C42.8119 60.6832 42.0086 58.5593 42.637 56.6491C42.882 55.9045 42.5688 55.0766 41.8925 54.6805C40.1572 53.6643 39.354 51.5404 39.9824 49.6301C40.2274 48.8855 39.9142 48.0576 39.2378 47.6615C37.5027 46.6453 36.6993 44.5214 37.3277 42.6112C37.554 41.9234 38.2948 41.5495 38.9827 41.7755C39.6704 42.0018 40.0445 42.7427 39.8183 43.4305C39.5733 44.1751 39.8865 45.003 40.5628 45.3991C42.2981 46.4153 43.1013 48.5393 42.4729 50.4495C42.2279 51.194 42.5411 52.0219 43.2174 52.4181C44.9527 53.4343 45.756 55.5583 45.1275 57.4684C44.8825 58.213 45.1957 59.0409 45.872 59.437C47.6072 60.4532 48.4105 62.5773 47.7821 64.4874C47.5371 65.232 47.8502 66.0599 48.5266 66.456C49.1513 66.8219 49.3611 67.625 48.9954 68.2497C48.7516 68.6663 48.3132 68.8983 47.863 68.8983Z" fill="#33CCCC"/>
<path d="M31.0376 58.907C30.6552 58.907 30.2761 58.7405 30.017 58.4198C28.7534 56.8554 28.7534 54.5846 30.017 53.0202C30.5095 52.4105 30.5095 51.5253 30.017 50.9154C28.7534 49.3512 28.7534 47.0803 30.017 45.5159C30.4719 44.9527 31.2973 44.8649 31.8605 45.3199C32.4237 45.7748 32.5115 46.6002 32.0566 47.1634C31.564 47.7731 31.564 48.6582 32.0566 49.268C33.3202 50.8324 33.3202 53.1032 32.0566 54.6675C31.564 55.2773 31.564 56.1624 32.0566 56.7722C32.5115 57.3354 32.4237 58.1608 31.8605 58.6157C31.618 58.8116 31.3269 58.907 31.0376 58.907Z" fill="#33CCCC"/>
<path d="M55.6147 18.2537C52.6222 15.2612 48.6585 13.3795 44.4553 12.9552C40.6608 12.5727 36.8186 13.3819 33.5247 15.2469C33.0218 14.8572 32.4414 14.5617 31.811 14.3877V9.31091C31.811 8.58633 31.2246 8 30.5001 8C29.7755 8 29.1892 8.58633 29.1892 9.31091V14.3877C28.5587 14.5617 27.9783 14.8572 27.4754 15.2469C24.1815 13.3819 20.3393 12.5715 16.5448 12.9552C12.3416 13.3795 8.37789 15.2612 5.38426 18.2537C-1.79475 25.4339 -1.79475 37.1165 5.38426 44.2967C5.64048 44.5517 5.97655 44.6804 6.31143 44.6804C6.64749 44.6804 6.98237 44.5517 7.2386 44.2967L28.0689 23.4663C28.7875 23.8739 29.617 24.1063 30.5001 24.1063C31.3831 24.1063 32.2126 23.8739 32.9312 23.4663L53.7615 44.2967C54.0177 44.5517 54.3526 44.6804 54.6887 44.6804C55.0236 44.6804 55.3596 44.5517 55.6159 44.2967C62.7949 37.1165 62.7949 25.4339 55.6147 18.2537ZM6.34956 41.477C1.09759 35.2788 1.39433 25.9535 7.2386 20.108C10.2751 17.0727 14.3461 15.5008 18.4409 15.5008C20.9972 15.5008 23.5618 16.1133 25.8904 17.3658C25.7665 17.6852 25.6747 18.0177 25.6187 18.3574C25.4817 19.1868 25.5615 20.0496 25.8487 20.8397C25.9452 21.1103 26.0632 21.3713 26.2062 21.6203L6.34956 41.477ZM30.5001 21.4845C28.6505 21.4845 27.5243 19.2559 28.6374 17.7686C29.0616 17.2014 29.7385 16.8331 30.5001 16.8331C31.7824 16.8331 32.8251 17.8771 32.8251 19.1582C32.8251 20.4405 31.7824 21.4845 30.5001 21.4845ZM54.6506 41.477L34.7939 21.6203C34.8058 21.6001 34.8165 21.5786 34.8261 21.5584C34.8261 21.5572 34.8272 21.556 34.8272 21.5548C35.2217 20.8445 35.4469 20.027 35.4469 19.1582C35.4469 18.5266 35.3278 17.9212 35.1109 17.3658C41.1673 14.1076 48.8301 15.1766 53.7615 20.108C59.6058 25.9535 59.9025 35.2788 54.6506 41.477Z" fill="white"/>
<path d="M12.3759 55.6754C12.3759 56.3988 11.7884 56.9863 11.065 56.9863H9.70286V58.3473C9.70286 59.0707 9.11653 59.6582 8.39196 59.6582C7.66857 59.6582 7.08105 59.0707 7.08105 58.3473V56.9863H5.72009C4.9967 56.9863 4.40918 56.3988 4.40918 55.6754C4.40918 54.9508 4.9967 54.3645 5.72009 54.3645H7.08105V53.0035C7.08105 52.279 7.66857 51.6926 8.39196 51.6926C9.11653 51.6926 9.70286 52.279 9.70286 53.0035V54.3645H11.065C11.7884 54.3645 12.3759 54.9508 12.3759 55.6754Z" fill="white"/>
<path d="M53.9984 52.4279C54.5096 52.9403 54.5096 53.7697 53.9984 54.2822C53.7422 54.5384 53.4073 54.6659 53.0712 54.6659C52.7363 54.6659 52.4003 54.5384 52.144 54.2822L51.684 53.8222L51.2228 54.2822C50.9678 54.5384 50.6317 54.6659 50.2969 54.6659C49.9608 54.6659 49.6259 54.5384 49.3697 54.2822C48.8572 53.7697 48.8572 52.9403 49.3697 52.4279L49.8297 51.9678L49.3697 51.5078C48.8572 50.9954 48.8572 50.1648 49.3697 49.6535C49.8809 49.1411 50.7116 49.1411 51.2228 49.6535L51.684 50.1135L52.144 49.6535C52.6565 49.1411 53.4859 49.1411 53.9984 49.6535C54.5096 50.1648 54.5096 50.9954 53.9984 51.5078L53.5384 51.9678L53.9984 52.4279Z" fill="white"/>
<path d="M14.6217 45.9711C14.1906 45.9744 13.7693 45.7483 13.5312 45.3883C12.7564 44.1874 14.1499 42.794 15.3498 43.5709C16.4187 44.2878 15.909 45.9696 14.6217 45.9711Z" fill="white"/>
<path d="M46.9721 45.9711C46.0633 45.9932 45.3924 44.9916 45.7615 44.1597C46.0893 43.3087 47.2692 43.0773 47.8994 43.733C48.3355 44.1586 48.4084 44.8856 48.0627 45.3884C47.8246 45.7485 47.4031 45.9744 46.9721 45.9711Z" fill="white"/>
<path d="M20.1299 66.9534C18.0202 66.9534 16.3037 65.2369 16.3037 63.1272C16.3037 61.0175 18.0202 59.301 20.1299 59.301C22.2397 59.301 23.9561 61.0175 23.9561 63.1272C23.9561 65.2369 22.2396 66.9534 20.1299 66.9534ZM20.1299 61.9228C19.4659 61.9228 18.9255 62.4632 18.9255 63.1272C18.9255 63.7912 19.4659 64.3316 20.1299 64.3316C20.794 64.3316 21.3343 63.7912 21.3343 63.1272C21.3343 62.4632 20.7939 61.9228 20.1299 61.9228Z" fill="white"/>
<path d="M36.131 39.4661C33.8629 39.4661 32.0176 37.6209 32.0176 35.3528C32.0176 33.0847 33.8629 31.2394 36.131 31.2394C38.3991 31.2394 40.2442 33.0847 40.2442 35.3528C40.2442 37.6209 38.3991 39.4661 36.131 39.4661ZM36.131 33.8613C35.3086 33.8613 34.6394 34.5303 34.6394 35.3528C34.6394 36.1752 35.3084 36.8443 36.131 36.8443C36.9534 36.8443 37.6224 36.1752 37.6224 35.3528C37.6224 34.5304 36.9534 33.8613 36.131 33.8613Z" fill="white"/>
</g>
<defs>
<clipPath id="clip0_6430_26529">
<rect width="61" height="61" fill="white"/>
</clipPath>
</defs>
</svg>
