<svg width="20" height="20" viewBox="0 0 20 20" fill="none" xmlns="http://www.w3.org/2000/svg">
<circle cx="10" cy="10" r="10" fill="#1567FF"/>
<path d="M9.96749 7.68553L7.46004 5.17809C7.23273 4.94843 6.86013 4.94843 6.63047 5.17575C6.63047 5.17575 6.63047 5.17575 6.62813 5.17809L4.17224 7.63632C3.94259 7.86598 3.94259 8.23623 4.17224 8.46589C4.40189 8.69554 4.77215 8.69554 5.00181 8.46589L6.45941 7.01063V13.7479C6.45941 14.0713 6.72187 14.3338 7.0476 14.3338C7.37333 14.3338 7.6358 14.0713 7.6358 13.7479V7.01063L9.14026 8.5151C9.36992 8.74475 9.74017 8.74475 9.96983 8.5151C10.1995 8.28545 10.1971 7.91519 9.96749 7.68553Z" fill="url(#paint0_linear_6418_10481)"/>
<path d="M15.8283 10.8679C15.601 10.6382 15.2284 10.6382 14.9988 10.8655C14.9988 10.8655 14.9988 10.8655 14.9964 10.8679L13.5412 12.3255V5.5882C13.5412 5.26481 13.2787 5 12.953 5C12.6296 5 12.3671 5.26246 12.3671 5.5882V12.3255L10.8626 10.821C10.633 10.5914 10.2627 10.5914 10.0331 10.821C9.80343 11.0507 9.80343 11.4209 10.0331 11.6506L12.5405 14.158C12.7678 14.3877 13.1404 14.3877 13.3701 14.1604C13.3701 14.1604 13.3701 14.1604 13.3724 14.158L15.8307 11.6998C16.0556 11.4701 16.058 11.0999 15.8283 10.8679C15.8283 10.8702 15.8283 10.8702 15.8283 10.8679Z" fill="url(#paint1_linear_6418_10481)"/>
<defs>
<linearGradient id="paint0_linear_6418_10481" x1="7.07045" y1="5.00555" x2="7.07045" y2="14.3338" gradientUnits="userSpaceOnUse">
<stop stop-color="#11FF8D"/>
<stop offset="1" stop-color="#73F9F5"/>
</linearGradient>
<linearGradient id="paint1_linear_6418_10481" x1="12.9304" y1="5" x2="12.9304" y2="14.3306" gradientUnits="userSpaceOnUse">
<stop stop-color="#11FF8D"/>
<stop offset="1" stop-color="#73F9F5"/>
</linearGradient>
</defs>
</svg>
